<svg width="16" height="15" viewBox="0 0 16 15" fill="none" xmlns="http://www.w3.org/2000/svg">
<path d="M14.5271 7.19324C14.5271 10.8486 11.4919 13.8313 7.72362 13.8313C3.95532 13.8313 0.920166 10.8486 0.920166 7.19324C0.920166 3.53787 3.95532 0.555176 7.72362 0.555176C11.4919 0.555176 14.5271 3.53787 14.5271 7.19324Z" stroke="white"/>
<path fill-rule="evenodd" clip-rule="evenodd" d="M6.35091 3.024C6.77745 3.00436 6.91345 3 8 3C9.08655 3 9.22255 3.00473 9.64873 3.024C10.0749 3.04327 10.3658 3.11127 10.6204 3.20982C10.8869 3.31055 11.1287 3.468 11.3287 3.67164C11.5324 3.87127 11.6895 4.11273 11.7898 4.37964C11.8887 4.63418 11.9564 4.92509 11.976 5.35055C11.9956 5.77782 12 5.91382 12 7C12 8.08655 11.9953 8.22255 11.976 8.64909C11.9567 9.07455 11.8887 9.36545 11.7898 9.62C11.6895 9.88694 11.5321 10.1288 11.3287 10.3287C11.1287 10.5324 10.8869 10.6895 10.6204 10.7898C10.3658 10.8887 10.0749 10.9564 9.64945 10.976C9.22255 10.9956 9.08655 11 8 11C6.91345 11 6.77745 10.9953 6.35091 10.976C5.92545 10.9567 5.63455 10.8887 5.38 10.7898C5.11306 10.6894 4.87121 10.5321 4.67127 10.3287C4.46777 10.129 4.3103 9.88723 4.20982 9.62036C4.11127 9.36582 4.04364 9.07491 4.024 8.64945C4.00436 8.22218 4 8.08618 4 7C4 5.91345 4.00473 5.77745 4.024 5.35127C4.04327 4.92509 4.11127 4.63418 4.20982 4.37964C4.31044 4.11276 4.46804 3.87102 4.67164 3.67127C4.87129 3.46782 5.1129 3.31034 5.37964 3.20982C5.63418 3.11127 5.92509 3.04364 6.35055 3.024H6.35091ZM9.61636 3.744C9.19455 3.72473 9.068 3.72073 8 3.72073C6.932 3.72073 6.80545 3.72473 6.38364 3.744C5.99345 3.76182 5.78182 3.82691 5.64073 3.88182C5.45418 3.95455 5.32073 4.04073 5.18073 4.18073C5.04802 4.30984 4.94588 4.46701 4.88182 4.64073C4.82691 4.78182 4.76182 4.99345 4.744 5.38364C4.72473 5.80545 4.72073 5.932 4.72073 7C4.72073 8.068 4.72473 8.19455 4.744 8.61636C4.76182 9.00655 4.82691 9.21818 4.88182 9.35927C4.94582 9.53273 5.048 9.69018 5.18073 9.81927C5.30982 9.952 5.46727 10.0542 5.64073 10.1182C5.78182 10.1731 5.99345 10.2382 6.38364 10.256C6.80545 10.2753 6.93164 10.2793 8 10.2793C9.06836 10.2793 9.19455 10.2753 9.61636 10.256C10.0065 10.2382 10.2182 10.1731 10.3593 10.1182C10.5458 10.0455 10.6793 9.95927 10.8193 9.81927C10.952 9.69018 11.0542 9.53273 11.1182 9.35927C11.1731 9.21818 11.2382 9.00655 11.256 8.61636C11.2753 8.19455 11.2793 8.068 11.2793 7C11.2793 5.932 11.2753 5.80545 11.256 5.38364C11.2382 4.99345 11.1731 4.78182 11.1182 4.64073C11.0455 4.45418 10.9593 4.32073 10.8193 4.18073C10.6902 4.04803 10.533 3.94589 10.3593 3.88182C10.2182 3.82691 10.0065 3.76182 9.61636 3.744ZM7.48909 8.23309C7.77442 8.35187 8.09214 8.3679 8.38797 8.27844C8.68381 8.18899 8.93942 7.99961 9.11113 7.74263C9.28285 7.48566 9.36002 7.17704 9.32947 6.86949C9.29892 6.56194 9.16255 6.27454 8.94364 6.05636C8.80409 5.9169 8.63535 5.81011 8.44958 5.74369C8.2638 5.67727 8.06561 5.65286 7.86927 5.67222C7.67293 5.69159 7.48333 5.75425 7.31411 5.85568C7.14489 5.95712 7.00027 6.09482 6.89066 6.25886C6.78104 6.42289 6.70916 6.6092 6.68019 6.80435C6.65122 6.9995 6.66587 7.19865 6.72311 7.38746C6.78034 7.57627 6.87872 7.75004 7.01117 7.89626C7.14362 8.04249 7.30685 8.15752 7.48909 8.23309ZM6.54618 5.54618C6.7371 5.35526 6.96375 5.20382 7.2132 5.1005C7.46265 4.99717 7.73 4.94399 8 4.94399C8.27 4.94399 8.53735 4.99717 8.7868 5.10049C9.03625 5.20382 9.2629 5.35526 9.45382 5.54618C9.64474 5.7371 9.79618 5.96375 9.89951 6.2132C10.0028 6.46265 10.056 6.73 10.056 7C10.056 7.27 10.0028 7.53735 9.89951 7.7868C9.79618 8.03625 9.64474 8.2629 9.45382 8.45382C9.06824 8.8394 8.54529 9.05601 8 9.05601C7.45471 9.05601 6.93176 8.8394 6.54618 8.45382C6.16061 8.06824 5.94399 7.54529 5.94399 7C5.94399 6.45471 6.16061 5.93176 6.54618 5.54618ZM10.512 5.25018C10.5593 5.20555 10.5972 5.15188 10.6234 5.09235C10.6496 5.03282 10.6636 4.96864 10.6645 4.90361C10.6655 4.83858 10.6534 4.77402 10.6289 4.71375C10.6045 4.65348 10.5682 4.59873 10.5222 4.55274C10.4762 4.50675 10.4214 4.47046 10.3612 4.44601C10.3009 4.42156 10.2363 4.40945 10.1713 4.41039C10.1063 4.41134 10.0421 4.42533 9.98256 4.45153C9.92303 4.47772 9.86936 4.5156 9.82473 4.56291C9.73793 4.65492 9.69041 4.77714 9.69226 4.90361C9.6941 5.03009 9.74516 5.15087 9.8346 5.24031C9.92404 5.32975 10.0448 5.38081 10.1713 5.38265C10.2978 5.3845 10.42 5.33698 10.512 5.25018Z" fill="white"/>
</svg>
